<svg width="350" height="350" viewBox="0 0 350 350" fill="none" xmlns="http://www.w3.org/2000/svg">
<rect width="350" height="350" fill="white"/>
<path d="M114.84 61C118.689 54.3333 128.311 54.3333 132.16 61L166.368 120.25C170.217 126.917 165.406 135.25 157.708 135.25H89.292C81.594 135.25 76.7827 126.917 80.6317 120.25L114.84 61Z" fill="#5200FF"/>
<path d="M236.16 212C232.311 218.667 222.689 218.667 218.84 212L184.632 152.75C180.783 146.083 185.594 137.75 193.292 137.75L261.708 137.75C269.406 137.75 274.217 146.083 270.368 152.75L236.16 212Z" fill="#5200FF"/>
<path d="M114.84 100C118.689 93.3333 128.311 93.3333 132.16 100L166.368 159.25C170.217 165.917 165.406 174.25 157.708 174.25H89.292C81.594 174.25 76.7827 165.917 80.6317 159.25L114.84 100Z" fill="#5200FF"/>
<path d="M236.16 173C232.311 179.667 222.689 179.667 218.84 173L184.632 113.75C180.783 107.083 185.594 98.75 193.292 98.75L261.708 98.75C269.406 98.75 274.217 107.083 270.368 113.75L236.16 173Z" fill="#5200FF"/>
<path d="M114.84 142C118.689 135.333 128.311 135.333 132.16 142L166.368 201.25C170.217 207.917 165.406 216.25 157.708 216.25H89.292C81.594 216.25 76.7827 207.917 80.6317 201.25L114.84 142Z" fill="#5200FF"/>
<path d="M236.16 131C232.311 137.667 222.689 137.667 218.84 131L184.632 71.75C180.783 65.0833 185.594 56.75 193.292 56.75L261.708 56.75C269.406 56.75 274.217 65.0833 270.368 71.75L236.16 131Z" fill="#5200FF"/>
<path d="M85.5 300V295.38C86.5733 295.333 87.46 295.193 88.16 294.96C88.9067 294.727 89.4667 294.19 89.84 293.35C90.26 292.51 90.47 291.157 90.47 289.29V262.48C90.47 261.22 90.4933 260.007 90.54 258.84C90.6333 257.673 90.7033 256.787 90.75 256.18C90.0033 256.227 89.07 256.273 87.95 256.32C86.83 256.32 86.0133 256.343 85.5 256.39V251H120.5L120.92 264.58H116.3C116.3 262.013 115.857 260.077 114.97 258.77C114.083 257.463 112.987 256.6 111.68 256.18C110.373 255.713 109.09 255.503 107.83 255.55L105.31 255.62C104.33 255.62 103.49 255.76 102.79 256.04C102.09 256.273 101.553 256.833 101.18 257.72C100.807 258.56 100.62 259.89 100.62 261.71V273.89H107.83L107.55 267.87H112.94V284.88H108.32C108.32 282.92 108.017 281.497 107.41 280.61C106.803 279.723 105.963 279.187 104.89 279C103.863 278.767 102.72 278.673 101.46 278.72H100.62V288.52C100.62 289.78 100.597 290.993 100.55 292.16C100.503 293.327 100.433 294.213 100.34 294.82C100.853 294.773 101.53 294.75 102.37 294.75C103.21 294.703 104.027 294.68 104.82 294.68C105.66 294.633 106.243 294.61 106.57 294.61V300H85.5ZM148.31 301.12C143.27 301.12 138.977 300.023 135.43 297.83C131.884 295.59 129.177 292.58 127.31 288.8C125.444 285.02 124.51 280.82 124.51 276.2C124.51 273.027 125 269.877 125.98 266.75C127.007 263.623 128.524 260.8 130.53 258.28C132.537 255.713 135.057 253.683 138.09 252.19C141.17 250.65 144.74 249.88 148.8 249.88C150.06 249.88 151.484 250.02 153.07 250.3C154.657 250.533 156.244 250.907 157.83 251.42C159.464 251.933 160.91 252.563 162.17 253.31L161.89 250.37H167.28V266.68H162.73C162.31 264.067 161.494 261.897 160.28 260.17C159.067 258.443 157.55 257.137 155.73 256.25C153.91 255.363 151.904 254.92 149.71 254.92C147.284 254.92 145.16 255.48 143.34 256.6C141.567 257.72 140.097 259.213 138.93 261.08C137.764 262.947 136.877 265.07 136.27 267.45C135.71 269.83 135.43 272.28 135.43 274.8C135.43 278.813 135.99 282.383 137.11 285.51C138.23 288.637 139.864 291.11 142.01 292.93C144.204 294.703 146.887 295.59 150.06 295.59C150.947 295.59 151.997 295.52 153.21 295.38C154.424 295.24 155.637 295.03 156.85 294.75C158.064 294.47 159.09 294.12 159.93 293.7V287.19C159.93 285.93 159.954 284.717 160 283.55C160.094 282.383 160.164 281.497 160.21 280.89C159.464 280.937 158.53 280.983 157.41 281.03C156.29 281.03 155.474 281.053 154.96 281.1V275.71H173.58V280.33C172.787 280.377 172.087 280.47 171.48 280.61C170.92 280.75 170.43 281.03 170.01 281.45C169.637 281.823 169.357 282.407 169.17 283.2C168.984 283.993 168.89 285.067 168.89 286.42V297.62H167.21C165.857 297.62 164.504 297.807 163.15 298.18C161.797 298.553 160.35 298.973 158.81 299.44C157.364 299.86 155.777 300.233 154.05 300.56C152.324 300.933 150.41 301.12 148.31 301.12ZM219.573 250.029V282.363C219.573 288.06 217.853 292.537 214.412 295.796C210.971 299.054 206.198 300.684 200.091 300.684C194.052 300.684 189.37 299.043 186.043 295.762C182.716 292.458 181.053 287.946 181.053 282.227V250.029H187.376V282.432C187.376 286.51 188.458 289.666 190.623 291.899C192.811 294.132 196.092 295.249 200.467 295.249C204.591 295.249 207.758 294.144 209.969 291.934C212.202 289.723 213.318 286.533 213.318 282.363V250.029H219.573ZM248.592 300H242.269V255.566H226.648V250.029H264.109V255.566H248.592V300Z" fill="black"/>
</svg>
