<svg width="913" height="154" viewBox="0 0 913 154" fill="none" xmlns="http://www.w3.org/2000/svg">
<path fill-rule="evenodd" clip-rule="evenodd" d="M12.8731 0L116.126 9.02337e-06V17.2373L12.8731 17.2373L12.8731 0ZM12.8731 34.4754L116.126 34.4754V51.7128L12.8731 51.7128L12.8731 34.4754ZM0 139.034L47.1572 112.042L3.77671e-06 85.0507L8.53799 70.0845L64.5 102.116L120.462 70.0845L129 85.0507L81.8428 112.042L129 139.034L120.462 154L64.5 121.969L8.53799 154L0 139.034Z" fill="#221C13"/>
<path d="M861.175 123.728C855.703 123.728 850.951 122.816 846.919 120.992C842.887 119.168 839.767 116.576 837.559 113.216C835.351 109.76 834.247 105.776 834.247 101.264C834.247 96.944 835.207 93.104 837.127 89.744C839.047 86.288 842.023 83.408 846.055 81.104C850.087 78.8 855.175 77.168 861.319 76.208L886.951 72.032V86.432L864.919 90.176C861.175 90.848 858.391 92.048 856.567 93.776C854.743 95.504 853.831 97.76 853.831 100.544C853.831 103.232 854.839 105.392 856.855 107.024C858.967 108.56 861.559 109.328 864.631 109.328C868.567 109.328 872.023 108.512 874.999 106.88C878.071 105.152 880.423 102.8 882.055 99.824C883.783 96.848 884.647 93.584 884.647 90.032V69.872C884.647 66.512 883.303 63.728 880.615 61.52C878.023 59.216 874.567 58.064 870.247 58.064C866.215 58.064 862.615 59.168 859.447 61.376C856.375 63.488 854.119 66.32 852.679 69.872L837.271 62.384C838.807 58.256 841.207 54.704 844.471 51.728C847.831 48.656 851.767 46.256 856.279 44.528C860.791 42.8 865.687 41.936 870.967 41.936C877.399 41.936 883.063 43.136 887.959 45.536C892.855 47.84 896.647 51.104 899.335 55.328C902.119 59.456 903.511 64.304 903.511 69.872V122H885.655V108.608L889.687 108.32C887.671 111.68 885.271 114.512 882.487 116.816C879.703 119.024 876.535 120.752 872.983 122C869.431 123.152 865.495 123.728 861.175 123.728Z" fill="#221C13"/>
<path d="M787.875 122V43.6643H805.587V61.0883L804.147 58.4963C805.971 52.6403 808.803 48.5603 812.643 46.2563C816.579 43.9523 821.283 42.8003 826.755 42.8003H831.363V59.5043H824.595C819.219 59.5043 814.899 61.1843 811.635 64.5443C808.371 67.8083 806.739 72.4163 806.739 78.3683V122H787.875Z" fill="#221C13"/>
<path d="M768.423 122.864C759.591 122.864 752.727 120.464 747.831 115.664C743.031 110.768 740.631 103.904 740.631 95.0721V60.5121H727.095V43.6641H728.535C732.375 43.6641 735.351 42.6561 737.463 40.6401C739.575 38.6241 740.631 35.6961 740.631 31.8561V25.8081H759.495V43.6641H777.495V60.5121H759.495V94.0641C759.495 96.6561 759.927 98.8641 760.791 100.688C761.751 102.512 763.191 103.904 765.111 104.864C767.127 105.824 769.671 106.304 772.743 106.304C773.415 106.304 774.183 106.256 775.047 106.16C776.007 106.064 776.919 105.968 777.783 105.872V122C776.439 122.192 774.903 122.384 773.175 122.576C771.447 122.768 769.863 122.864 768.423 122.864Z" fill="#221C13"/>
<path d="M700.75 122V12.9922H719.614V122H700.75Z" fill="#221C13"/>
<path d="M644.623 123.728C636.367 123.728 629.023 122 622.591 118.544C616.255 115.088 611.263 110.336 607.615 104.288C603.967 98.2402 602.143 91.3762 602.143 83.6962V14.7202H621.727V82.6882C621.727 87.1042 622.687 91.0882 624.607 94.6402C626.623 98.1922 629.359 100.976 632.815 102.992C636.271 104.912 640.207 105.872 644.623 105.872C649.135 105.872 653.071 104.912 656.431 102.992C659.887 100.976 662.575 98.1922 664.495 94.6402C666.511 91.0882 667.519 87.1042 667.519 82.6882V14.7202H687.103V83.6962C687.103 91.3762 685.279 98.2402 681.631 104.288C677.983 110.336 672.943 115.088 666.511 118.544C660.175 122 652.879 123.728 644.623 123.728Z" fill="#221C13"/>
<path d="M581.175 122V12.9922H589.815V122H581.175Z" fill="#221C13"/>
<path d="M535.369 123.728C528.169 123.728 521.689 122 515.929 118.544C510.169 114.992 505.609 110.192 502.249 104.144C498.889 98.0001 497.209 91.1361 497.209 83.5521C497.209 75.9681 498.841 69.2001 502.105 63.2481C505.369 57.2001 509.785 52.4481 515.353 48.9921C520.921 45.5361 527.161 43.8081 534.073 43.8081C539.353 43.8081 544.105 44.7681 548.329 46.6881C552.649 48.6081 556.345 51.2961 559.417 54.7521C562.585 58.1121 564.985 62.0001 566.617 66.4161C568.345 70.7361 569.209 75.2961 569.209 80.0961C569.209 81.0561 569.161 82.0641 569.065 83.1201C568.969 84.1761 568.825 85.2801 568.633 86.4321H502.249V78.5121H563.737L559.849 81.5361C560.425 75.9681 559.609 70.9761 557.401 66.5601C555.193 62.0481 552.025 58.4961 547.897 55.9041C543.865 53.2161 539.257 51.8721 534.073 51.8721C528.889 51.8721 524.137 53.2641 519.817 56.0481C515.497 58.7361 512.089 62.4801 509.593 67.2801C507.097 71.9841 505.945 77.4561 506.137 83.6961C505.945 89.9361 507.145 95.4561 509.737 100.256C512.329 105.056 515.881 108.848 520.393 111.632C524.905 114.32 529.897 115.664 535.369 115.664C540.937 115.664 545.785 114.368 549.913 111.776C554.041 109.088 557.401 105.536 559.993 101.12L567.337 105.008C565.609 108.56 563.161 111.776 559.993 114.656C556.825 117.44 553.129 119.648 548.905 121.28C544.777 122.912 540.265 123.728 535.369 123.728Z" fill="#221C13"/>
<path d="M484.356 122.864C478.02 122.864 473.124 121.088 469.668 117.536C466.212 113.888 464.484 108.608 464.484 101.696V53.7442H450.084V45.5362H455.556C458.436 45.5362 460.644 44.6722 462.18 42.9442C463.716 41.2162 464.484 38.8642 464.484 35.8882V27.6802H473.124V45.5362H489.828V53.7442H473.124V101.696C473.124 103.808 473.412 105.872 473.988 107.888C474.66 109.904 475.908 111.536 477.732 112.784C479.556 114.032 482.196 114.656 485.652 114.656C486.42 114.656 487.332 114.608 488.388 114.512C489.54 114.416 490.452 114.32 491.124 114.224V122C490.068 122.288 488.868 122.48 487.524 122.576C486.18 122.768 485.124 122.864 484.356 122.864Z" fill="#221C13"/>
<path d="M382.798 122V12.9922H391.438V60.9442L389.278 60.3682C391.006 55.2802 394.078 51.2482 398.494 48.2722C403.006 45.2962 408.238 43.8082 414.19 43.8082C419.47 43.8082 424.27 45.0082 428.59 47.4082C432.91 49.8082 436.366 53.1682 438.958 57.4882C441.55 61.7122 442.846 66.5602 442.846 72.0322V122H434.206V74.4802C434.206 69.8722 433.246 65.9362 431.326 62.6722C429.502 59.3122 426.958 56.7682 423.694 55.0402C420.526 53.2162 416.926 52.3042 412.894 52.3042C408.574 52.3042 404.782 53.3122 401.518 55.3282C398.35 57.3442 395.854 60.1282 394.03 63.6802C392.302 67.2322 391.438 71.3122 391.438 75.9202V122H382.798Z" fill="#221C13"/>
<path d="M339.379 123.728C332.083 123.728 325.555 122 319.795 118.544C314.131 114.992 309.619 110.192 306.259 104.144C302.995 98.0961 301.363 91.2801 301.363 83.6961C301.363 76.0161 302.995 69.2001 306.259 63.2481C309.619 57.2001 314.131 52.4481 319.795 48.9921C325.555 45.5361 332.083 43.8081 339.379 43.8081C344.179 43.8081 348.595 44.6241 352.627 46.2561C356.755 47.8881 360.403 50.0961 363.571 52.8801C366.739 55.6641 369.139 58.8801 370.771 62.5281L363.139 66.5601C360.835 62.1441 357.619 58.6401 353.491 56.0481C349.363 53.4561 344.659 52.1601 339.379 52.1601C333.907 52.1601 328.963 53.5041 324.547 56.1921C320.227 58.8801 316.771 62.6241 314.179 67.4241C311.587 72.1281 310.291 77.5521 310.291 83.6961C310.291 89.8401 311.587 95.3121 314.179 100.112C316.771 104.816 320.227 108.512 324.547 111.2C328.963 113.888 333.907 115.232 339.379 115.232C344.659 115.232 349.363 113.936 353.491 111.344C357.619 108.752 360.835 105.2 363.139 100.688L370.771 104.864C369.139 108.416 366.739 111.632 363.571 114.512C360.403 117.296 356.755 119.552 352.627 121.28C348.595 122.912 344.179 123.728 339.379 123.728Z" fill="#221C13"/>
<path d="M280.828 122V45.5362H289.468V122H280.828ZM280.828 30.5602V14.7202H289.468V30.5602H280.828Z" fill="#221C13"/>
<path d="M206.536 122V14.7202H272.056V23.3602H215.896V63.8242H267.016V72.4642H215.896V122H206.536Z" fill="#221C13"/>
</svg>
