<svg width="160" height="32" viewBox="0 0 160 32" fill="none" xmlns="http://www.w3.org/2000/svg">
<path d="M104.116 3.1706V3H110.98V28.6588H104.319V28.4882C104.319 28.4882 106.212 27.9764 106.212 25.9974V5.66142C106.212 3.68241 104.116 3.1706 104.116 3.1706Z" fill="white"/>
<path d="M87.0748 4.84252V4.67192H95.3581V21.7664C95.3581 25.6903 96.9133 27.8058 99.2461 27.8058C101.816 27.8058 103.641 25.6562 103.641 21.7664V7.4357C103.641 5.45669 100.193 4.94488 100.193 4.94488V4.77428H103.979V21.7664C103.979 26.3727 101.342 29 97.6233 29C93.9043 29 90.591 26.6115 90.591 21.7664V7.40157C90.591 5.35433 87.0748 4.84252 87.0748 4.84252Z" fill="white"/>
<path d="M114.048 5.7979V5.9685C114.048 5.9685 116.144 7.50394 116.144 9.48294V11.189H113.507V11.4278H116.144V23.6089C116.279 27.021 118.24 29 121.959 29C125.408 29 127.234 27.601 127.234 24.7008V22.0394H122.095V22.21C122.095 22.21 126.862 22.6194 126.862 24.7008C126.862 27.1575 125.34 28.4541 123.447 28.4541C121.723 28.4541 120.911 26.9186 120.911 23.2336V11.4278H124.833V11.189H120.911L114.048 5.7979Z" fill="white"/>
<path d="M127.888 11.769V11.5984H134.752V14.3963C135.394 12.4173 136.645 11.2572 137.997 11.2572C139.553 11.2572 141.953 11.8373 141.953 11.8373L138.978 17.1601L138.843 17.0577C138.843 17.0577 139.688 13.2362 138.437 12.0761C138.268 11.9738 137.997 11.8373 137.727 11.8373C136.307 11.8373 134.954 13.4409 134.752 16.4436V28.6588H128.091V28.4882C128.091 28.4882 129.985 27.9764 129.985 25.9974V14.2598C129.985 12.2808 127.888 11.769 127.888 11.769Z" fill="white"/>
<path fill-rule="evenodd" clip-rule="evenodd" d="M149.79 28.6588H160V28.4882C160 28.4882 158.005 27.9764 158.005 25.9974V17.9449C158.005 13.7822 154.861 11.2572 150.06 11.2572C147.355 11.2572 143.231 11.7349 143.095 15.5564V18.2178H148.674C144.752 19.6168 141.202 21.5958 141.202 24.8714C141.202 27.5669 143.569 29 145.868 29C148.911 29 152.055 26.5774 153.238 21.4593V25.9974C153.238 27.9764 149.79 28.4882 149.79 28.4882V28.6588ZM150.06 11.5984C152.122 11.5984 153.204 13.4068 153.238 16.7848C152.893 16.8883 152.54 16.9918 152.183 17.0967C151.244 17.3723 150.271 17.6578 149.316 17.979C148.099 17.7402 145.834 17.0919 145.834 15.5564C145.834 12.7585 147.592 11.5984 150.06 11.5984ZM153.238 17.0577V18.6273C152.866 25.3832 149.688 26.7139 148.065 26.7139C146.071 26.7139 144.989 24.7349 144.989 23.1995C144.989 20.3675 148.809 18.3885 153.238 17.0577Z" fill="white"/>
<path d="M39.3702 28.6588V7.70288H42.9635V15.0942C43.3841 14.4852 43.9418 14.033 44.6367 13.7377C45.3316 13.424 46.1088 13.2671 46.9683 13.2671C48.0655 13.2671 49.0347 13.5071 49.8759 13.9869C50.7354 14.4667 51.4028 15.1403 51.8783 16.0077C52.3538 16.8567 52.5915 17.844 52.5915 18.9698V28.6588H48.9981V19.828C48.9981 18.8314 48.7147 18.047 48.1478 17.4749C47.5809 16.8844 46.8586 16.5891 45.9808 16.5891C45.1031 16.5891 44.3807 16.8844 43.8138 17.4749C43.2469 18.0655 42.9635 18.8498 42.9635 19.828V28.6588H39.3702Z" fill="white"/>
<path d="M0 28.6588V8.03508H13.6328V11.357H3.7305V17.0597H12.3984V20.3816H3.7305V28.6588H0Z" fill="white"/>
<path d="M15.7706 11.9107V8.03508H19.364V11.9107H15.7706Z" fill="white"/>
<path d="M15.7706 28.6588V13.5993H19.364V28.6588H15.7706Z" fill="white"/>
<path d="M23.0932 25.1431C23.7698 26.3242 24.6933 27.2654 25.8636 27.9667C27.0522 28.6496 28.3872 28.991 29.8684 28.991C30.9473 28.991 31.944 28.8064 32.8583 28.4373C33.7726 28.0498 34.559 27.5238 35.2173 26.8594C35.8756 26.1766 36.3511 25.4107 36.6437 24.5617L33.4892 23.1222C33.1966 23.9158 32.7303 24.5433 32.0902 25.0047C31.4685 25.4476 30.7279 25.6691 29.8684 25.6691C29.0821 25.6691 28.378 25.4753 27.7563 25.0877C27.1528 24.7002 26.6774 24.165 26.3299 23.4821C25.9825 22.7808 25.8087 21.9965 25.8087 21.1291C25.8087 20.2432 25.9825 19.4589 26.3299 18.776C26.6774 18.0932 27.1528 17.558 27.7563 17.1704C28.378 16.7829 29.0821 16.5891 29.8684 16.5891C30.7279 16.5891 31.4685 16.8198 32.0902 17.2812C32.7303 17.7425 33.1966 18.3516 33.4892 19.1082L36.6437 17.7241C36.3328 16.8382 35.8482 16.0631 35.1899 15.3987C34.5315 14.7159 33.7452 14.1899 32.8309 13.8208C31.9165 13.4517 30.929 13.2671 29.8684 13.2671C28.3872 13.2671 27.0522 13.6086 25.8636 14.2914C24.6933 14.9742 23.7698 15.9062 23.0932 17.0874C22.4166 18.2685 22.0783 19.6065 22.0783 21.1014C22.0783 22.5963 22.4166 23.9435 23.0932 25.1431Z" fill="white"/>
<path d="M58.5102 27.4131C59.4428 28.3543 60.7503 28.8249 62.4327 28.8249C62.707 28.8249 63.0087 28.8064 63.3379 28.7695C63.667 28.7326 63.9596 28.6957 64.2156 28.6588V25.5583C63.8682 25.6137 63.5482 25.6414 63.2556 25.6414C62.3778 25.6414 61.7378 25.4384 61.3355 25.0324C60.9332 24.6263 60.732 24.045 60.732 23.2883V16.8382H64.1608V13.5993H60.732V10.1667H57.1387V11.3293C57.1387 12.0675 56.9375 12.6304 56.5352 13.018C56.1329 13.4056 55.566 13.5993 54.8345 13.5993H54.5602V16.8382H57.1387V23.4821C57.1387 25.1615 57.5958 26.4719 58.5102 27.4131Z" fill="white"/>
<path fill-rule="evenodd" clip-rule="evenodd" d="M73.9041 28.991C72.368 28.991 71.0239 28.6404 69.8718 27.9391C68.7198 27.2378 67.8237 26.2873 67.1837 25.0877C66.5436 23.8881 66.2236 22.5594 66.2236 21.1014C66.2236 19.5881 66.5436 18.2501 67.1837 17.0874C67.842 15.9062 68.7289 14.9742 69.8444 14.2914C70.9782 13.6086 72.24 13.2671 73.6297 13.2671C75.1841 13.2671 76.5008 13.6086 77.5797 14.2914C78.6586 14.9558 79.4815 15.8416 80.0484 16.949C80.6153 18.0563 80.8987 19.2835 80.8987 20.6308C80.8987 20.9076 80.8804 21.1844 80.8439 21.4613C80.8256 21.7196 80.7799 21.9503 80.7067 22.1533H69.9541C70.0638 23.2606 70.4844 24.1465 71.2159 24.8109C71.9474 25.4753 72.8526 25.8075 73.9315 25.8075C74.7544 25.8075 75.4493 25.6321 76.0162 25.2815C76.6013 24.9124 77.0585 24.4418 77.3877 23.8697L80.2953 25.3092C79.8381 26.3796 79.0335 27.2654 77.8814 27.9667C76.7476 28.6496 75.4219 28.991 73.9041 28.991ZM73.6297 16.2569C72.7337 16.2569 71.9565 16.5337 71.2982 17.0874C70.6581 17.6226 70.2376 18.3885 70.0364 19.3851H77.0585C76.9854 18.4623 76.6288 17.7149 75.9887 17.1427C75.367 16.5522 74.5807 16.2569 73.6297 16.2569Z" fill="white"/>
<path d="M83.6227 7.70288V28.6588H87.216V7.70288H83.6227Z" fill="white"/>
</svg>
