<svg width="1200" height="675" viewBox="0 0 1200 675" fill="none" xmlns="http://www.w3.org/2000/svg">
<rect width="1200" height="675" fill="#9C9992"/>
<g style="mix-blend-mode:screen">
<path d="M491 50.3896L490.635 49.3428L490.593 49.212L490.342 48.3084L489.483 45.1967L489.25 44.4479L488.391 41.6525L487.928 40.3345L487.782 40L480.124 41.2478L476.29 41.7495L475.575 41.8774L471.831 42.7137L470.961 42.6041L470.617 42.5224L470.503 42.632L470.234 42.7349L469.173 42.9089L468.263 43.1184L468.191 43.1271L467.444 43.2222L466.609 43.3068L466.093 43.3165L466.169 43.4712L466.021 43.8855L465.84 43.9L465.281 43.5231L462.847 44.8584L461.106 45.4919L459.286 45.6466L458.781 46.06L458.526 46.2609L458.314 46.2791L457.473 45.7591L456.104 45.5005L455.111 45.7802L454.432 46.3128L453.58 46.581L451.887 47.4231L450.282 48.7775L448.576 49.8446L447.643 50.5848L446.514 51.1529L445.672 51.7316L443.073 51.9719L442.31 52.4064L441.239 52.6381L440.363 52.565L439.169 52.8755L438.109 53.3831L437.622 53.7724L434.302 54.8894L433.414 55.1269L433.146 55.1451L432.412 55.075L431.531 54.9711L430.773 54.9894L430.004 55.3605L429.881 55.5191L429.6 55.7652L429.447 56.0603L429.228 56.1545L428.643 56.1516L428.138 56.4015L427.008 57.4051L422.911 58.8538L422.035 59.197L421.378 60.5966L420.442 63.3074L419.785 65.2848L419.151 67.0373L417.687 71.3054L417.515 71.9658L417.517 72.2638L416.952 73.3443L416.153 74.6949L415.818 74.9448L414.77 75.1332L414.104 75.1851L412.78 75.0688L407.452 75.115L406.476 75.2976L405.812 75.611L405.129 76.1339L404.189 77.2442L403.059 79.0851L402.199 79.733L401.113 80.1473L400.437 80.4021L399.662 80.6424L399.054 81.2182L398.721 81.9267L398.531 83.1196L398.762 85.5229L399.012 86.6908L399.137 86.9677L399.311 87.3599L399.5 87.7829L399.828 88.7807L399.881 88.9758L400.533 91.3156L400.724 92.9123L400.609 93.64L400.227 94.0082L399.584 94.7195L399.289 95.0694L398.875 95.3194L398.759 95.3126L398.596 95.3069L398.471 95.2982L398.231 95.2761L398.038 95.2521L397.623 95.1733L397.346 95.0819L397.056 95.0329L396.803 95.0175L396.163 95.2031L395.807 95.404L395.69 95.7385L395.526 96.2412L395.098 97.5794L394.975 97.6467L394.758 97.6313L394.297 97.391L393.967 97.9177L393.244 99.1405L392.76 99.9614L392.196 100.847L391.918 101.303L391.016 102.377L389.614 103.442L389.35 103.586L389.205 103.664L388.009 104.179L387.647 104.312L386.893 104.613L385.606 105.039L385.11 105.164L384.462 105.286L383.915 105.365L383.569 105.383L382.524 107.081L382.316 107.488L382.271 107.619L381.712 107.75L381.194 107.954L380.81 108.204L380.251 108.404L379.917 108.608L379.587 108.839L379.111 109.225L378.612 109.655L378.2 110.008L377.087 111.163L376.709 111.754L376.474 112.223L376.118 112.774L375.699 113.659L375.179 115.432L374.06 116.427L373.283 117.486L372.779 118.228L371.595 117.65L370.84 117.666L367.984 118.867L367.775 118.912L367.444 118.873L367.205 118.766L366.57 118.484L364.656 117.233L364.035 116.999L363.547 116.901L363.174 116.935L361.451 117.254L356.448 117.668L353.264 118.055L350.831 118.45L348.714 118.982L347.814 119.272L345.623 120.175L344.964 120.82L344.751 120.936L344.527 121.036L343.796 121.203L343.039 121.644L342.806 121.983L342.73 122.104L342.41 122.335L341.663 122.42L340.123 123.921L340.002 124.109L339.435 124.937L338.43 126.269L337.912 126.959L337.701 126.98L337.554 127.167L337.146 127.687L336.881 128.073L335.629 129.886L335.322 130.27L334.003 131.493L333.797 131.599L333.174 132.545L332.603 133.428L331.627 134.876L331.11 135.447L330.592 135.892L329.266 136.96L328.997 137.17L328.789 137.28L328.331 137.261L327.423 137.218L326.914 137.264L325.926 137.51L325.459 137.641L322.733 138.678L321.077 139.281L320.767 139.436L320.487 139.594L319.842 140.063L318.718 140.976L317.852 141.608L316.764 142.293L315.574 142.956L314.939 143.269L314.074 143.625L313.317 143.912L313.207 143.817L311.593 143.942L311.263 143.975L310.625 144.037L309.346 144.015L308.754 143.817L307.863 143.126L307.152 142.609L307.006 142.503L306.55 142.165L305.422 141.301L305.267 141.432L305.187 141.374L301.844 142.947L301.406 143.105L300.872 143.3L299.346 143.635L299.149 143.65L298.534 143.702L297.518 143.656L294.493 143.437L294.178 143.416L290.974 143.16L289.858 142.78L289.018 142.616L288.833 142.692L288.091 142.682L286.98 142.64L286.183 143.078L285.972 143.321L285.035 143.552L284.066 143.792L283.58 143.851L282.628 144.197L281.947 144.648L281.753 144.831L281.14 145.411L280.986 145.421L278.455 147.615L278.255 147.942L278.001 148.08L277.277 148.083L276.168 148.438L274.726 148.409L274.306 148.305L273.83 148.378L273.383 148.907L272.883 150.647L272.744 151.368L272.625 151.627L272.463 152.46L271.992 152.643L271.344 152.844L270.953 152.883L270.233 153.108L269.328 154.046L269.397 155.293L269.155 155.512L268.756 155.542L268.758 155.884L268.655 156.014L268.235 155.971L267.789 155.725L267.533 155.81L267.28 156.103L267.157 156.236L267.094 156.388L266.973 156.605L266.551 156.644L266.426 156.623L265.729 156.336L265.363 156.163L265.119 156.048L264.944 155.989L264.897 155.743L264.826 155.385L264.495 154.986L264.3 154.751L264.073 154.45L263.678 153.957H263.634L263.592 153.96L263.625 154.051L263.811 154.502L263.838 154.743L263.759 155.074L263.553 155.534L263.67 155.968L263.43 156.464L263.032 156.641L262.749 156.929L262.711 157.143L262.826 158.269L262.727 158.53L262.213 159.41L262.204 159.65L262.179 160L262.336 160.894L262.531 161.499L262.639 161.834L263.153 162.841L261.324 162.321L260.641 162.342L258.195 162.482L257.056 162.695L256.224 162.863L255.907 163.017L254.846 163.724L253.515 163.41L251.089 163.988L248.8 164.146L248.546 164.179L248.132 164.314L245.658 165.819L244.607 166.245L243.781 166.151L242.596 165.713L241.365 166.008L240.708 165.895L238.58 164.995L237.399 164.798L236.419 164.137L236.241 164.043L235.5 163.775L234.475 163.541L233.029 161.825L231.871 160.946L230.782 160.83L229.792 159.671L229.429 159.421L229.1 159.339L223.743 159.549L222.245 159.966L220.945 160.048L219.466 160.434L218.853 160.824L218.987 161.423L218.923 162.67L218.435 163.161L217.763 163.763L215.908 164.858L215.707 165.403L215.631 166.258L215.381 166.714L215.218 167.854L214.719 168.792L214.725 169.829L213.779 173.331L210.83 183.626L209.541 183.532L208.648 183.389L207.725 182.981L206.281 181.953L205.84 181.412L204.475 178.777L203.557 177.666L202.751 177.113L202.206 176.903L199.703 176.632L196.954 176.854L196.214 176.784L195.511 177.572L195.218 177.749L193.772 177.959L189.576 178.607L190.876 188.561L191.155 190.21L191.343 192.467L191.452 194.923L191.679 200L191.921 201.528L189.814 202.614L188.825 203.137L188.224 203.173L187.88 202.951L184.896 201.256L182.726 199.341L182.111 199.048L181.342 198.774L179.479 197.993L173.094 194.619L172.643 194.509L171.527 194.582L169.764 193.916L168.538 193.465L168.118 193.274L161.65 193.395L160.179 193.009L160.14 193.468L159.845 193.624L158.312 194.147L156.371 194.488L154.033 195.285L153.293 195.708L151.9 195.941L151.363 195.982L151.111 196.587L150.888 196.934L147.644 201.114L146.779 202.327L145.056 204.509L144.481 205.191L143.5 206.535L143.424 206.663L142.756 206.505L142.411 206.718L142.139 206.642L142.356 206.445L142.139 206.642L141.678 206.508L142.139 206.642L142.411 206.718L142.756 206.505L143.424 206.663L143.5 206.535L142.907 206.137L143.5 206.535L143.424 206.663L143.162 206.989L142.684 207.433L142.157 207.686L141.276 208.135L140.762 208.051L140.275 207.889L138.901 206.879L137.354 206.599L136.442 206.438L136.54 208.287L136.478 209.191L136.879 211.293L137.755 213.472L137.753 213.916L137.764 214.193L137.14 216.146L136.826 218.44L135.64 221.413L134.7 223.5L134.805 224.574L135.231 225.154L136.387 225.973L137.393 226.925L138.6 228.826L138.643 228.885L138.881 229.198L141.785 231.358L142.309 231.945L143.131 233.354L143.482 233.749L147.844 238.544L148.72 239.542L149.203 239.959L153.67 242.681L158.526 246.025L159.15 246.5L159.72 247.181L160.847 249.323L161.415 251.809L161.937 252.438L163.352 252.974L164.1 252.892L164.584 252.663L165.1 252.53L165.749 252.563L166.395 252.788L167.161 253.135L168.649 254.181L169.136 254.625L169.55 255.024L170.653 256.171L171.249 256.789L172.414 258.772L173.122 259.564L174.274 260.491L174.573 260.772L176.032 262.567L176.227 262.758L177.621 263.857L178.24 264.356L178.49 264.599L178.871 265.025L179.377 265.682L179.982 266.433L180.336 266.819L181.214 267.568L181.66 267.939L182.322 268.478L183.257 269.405L183.586 269.755L183.982 270.185L184.068 270.269L184.169 270.394L185.211 271.642L185.51 272.761L185.873 273.181L185.976 273.172L186.375 273.248L186.897 273.303L187.605 273.385L189.497 273.638L189.921 273.711L189.72 274.887L189.835 275.667L190.94 276.859L191.134 277.146L191.608 278.107L192.162 279.433L192.431 279.929L192.856 280.476L193.573 281.183L194.877 281.97L195.044 282.302L195.046 282.512L194.95 282.701L194.751 282.932L194.27 283.379L193.579 284.046L193.208 284.447L193.007 285.174L193.009 286.582L193.072 286.835L193.316 287.626L193.63 289.108L193.798 289.893L193.965 290.641L194.137 291.143L194.288 291.581L194.503 292.211L194.523 292.394V292.707L194.512 292.84L194.497 293.008L194.366 293.456L194.077 295.499L193.782 297.684L193.725 297.888L193.335 298.876L193.102 299.157L192.796 299.437L192.823 299.476L193.102 299.784L193.517 300.252L193.734 300.194L193.937 300.167L194.213 300.228L194.448 300.313L194.898 300.55L195.057 301.42L195.093 301.608L195.114 301.728L195.259 301.755L196.059 301.819L196.674 302.072L197.204 302.175L198.151 302.388L198.394 302.598L198.489 302.829L198.509 303.127L198.667 305.512L198.678 305.695L198.653 307.56L198.686 307.797L198.821 308.81L198.735 309.702L198.606 311.323L198.502 312.556L198.347 314.134L198.15 315.455L197.985 316.349L197.204 320.632L197.132 321.031L196.964 321.588L196.126 323.069L196.731 323.794L197.889 324.98L198.891 325.902L198.878 326.082L198.761 327.78L198.61 329.942L198.571 331.555L198.778 332.894L199.289 334.411L199.38 335.9L199.104 338.637L199.219 340.253L199.473 341.317L199.991 342.401L199.48 343.186L199.083 343.55L197.86 344.564L197.632 344.926L197.489 345.635L197.491 347.308L195.851 349.027L195.013 350.122L193.917 350.384L192.325 350.886L191.655 350.923L191.7 352.373L191.986 354.78L191.95 356.956L192.138 358.562L192.032 359.009L191.796 359.322L190.894 359.55L190.267 359.754L190.032 360.019L189.735 362.781L189.431 363.935L189.443 364.297L189.281 364.556L188.915 365.091L188.89 366.654L189.132 367.317L189.636 368.057L189.82 369.177L189.757 370.159L189.355 372.067L189.23 372.429L188.984 372.666L188.914 373.277L188.763 374.343L187.97 375.231L187.687 375.586L187.752 375.782L187.683 376.016L187.525 375.991L187.396 376.612L186.624 377.142L186.347 377.61L186.21 377.686L186.167 377.527L186.062 377.595L186.214 377.847L185.701 379.018L185.642 379.389L185.544 379.384L185.408 379.341L185.423 379.323H185.437L185.453 379.341L185.449 379.35L185.294 379.405L185.202 379.411L185.142 379.384L185.113 379.365L185.142 379.384L185.202 379.411L185.294 379.405L185.449 379.35L185.453 379.341L185.437 379.323H185.423L185.408 379.341L185.544 379.384L185.642 379.389L185.703 379.731L185.73 379.885L184.507 379.749L183.8 380.068L183.728 380.436L183.644 380.588L183.348 380.85L182.65 381.452L180.373 383.296L178.299 385.32L176.304 386.883L175.769 387.531L175.663 387.68L175.194 388.158L175.148 388.347L174.997 388.666L174.721 388.97L172.044 392.965L171.735 394.02L171.249 394.273L170.704 394.921L169.108 397.172L168.581 398.015L163.507 407.05L161.26 410.604L158.477 413.79L155.749 417.407L154.437 419.087L153.427 420.963L152.291 421.84L151.757 422.025L151.912 425.536L151.972 427.273L151.783 427.456L152.082 428.852L152.187 429.862L152.072 431.584L151.902 432.263L151.662 432.88L151.027 434.064L149.976 435.108L149.135 435.743L147.326 436.915L144.57 438.874L144.338 438.995L144.09 438.974L143.482 438.663L142.76 438.062L142.436 437.818L142.231 437.663L140.871 436.874L140.869 436.872L140.012 436.555L139.512 436.565L139.389 436.628L139.44 436.991L139.857 437.608L139.745 438.341L139.618 438.518L139.514 438.649L139.479 438.88L139.719 439.075L139.479 438.88L139.514 438.649L139.618 438.518L139.87 438.6L140.29 438.837L140.914 439.446L141.688 439.771L142.513 440.039L142.848 439.993L143.42 439.61L144.338 438.995L144.57 438.874L145.001 439.376L145.565 440.127L147.201 441.052L147.996 442.22L150.482 445.275L150.943 445.412L151.652 445.035L152.296 445.122L152.603 445.247L152.673 446.193L152.215 450.267L151.7 455.543L151.757 456.179L151.248 459.695L151.161 460.335L151.125 460.946L151.15 461.497L151.466 462.011L152.375 463.197L153.454 463.219L154.232 463.176L154.843 463.085L156.271 464.639L156.857 465.148L157.737 466.799L157.987 467.073L158.235 467.125L158.767 467.228L159.187 467.53L159.642 467.956L159.93 468.418L160.208 468.707L160.52 469.729L160.724 470.012L162.476 471.774L162.876 471.989L163.462 472.827L162.96 473.8L162.832 474.044L162.864 474.183L162.663 474.624L162.412 474.682L162.113 474.679L161.964 474.643L161.735 474.232L161.61 473.937L161.577 473.885L161.536 473.854L161.3 473.754L161.281 473.749L161.3 473.754L161.536 473.854L161.577 473.885L161.61 473.937L161.735 474.232L161.964 474.643L162.113 474.679L162.412 474.682L162.663 474.624L162.864 474.183L162.832 474.044L162.96 473.8L163.462 472.827L162.876 471.989L162.476 471.774L160.724 470.012L160.52 469.729L160.208 468.707L159.93 468.418L159.642 467.956L159.187 467.53L158.767 467.228L158.235 467.125L157.987 467.073L157.927 467.165L157.314 468.805L156.861 469.072L156.182 469.079L154.138 468.67L153.214 468.661L152.89 468.761L151.816 469.513L150.996 470.529L149.381 471.348L148.279 471.54L146.664 471.232L145.059 471.263L144.407 471.339L144.004 471.393L142.006 471.716L140.992 472.026L139.854 472.145L139.25 472.19L139.178 472.303L137.061 472.796L135.108 472.921L133.421 473.885L132.73 474.125L130.511 474.436L128.855 475.008L126.188 473.697L124.304 473.374L123.429 473.088L121.714 471.996L120.643 471.403L119.782 470.928L119.375 470.718L118.601 470.383L119.375 470.718L118.957 471.445L118.004 473.155L117.703 474.53L117.4 474.935L116.992 475.662L116.076 476.635L115.592 477.077L114.067 477.931L112.963 479.13L112.833 479.438L111.602 480.08L111.217 480.462L111.323 480.94L111.1 481.847L110.939 482.185L110.901 482.763L111.087 483.311L112.426 484.871L112.705 484.996L112.453 485.06L110.449 485.218L110.069 485.249L108.772 485.552L106.821 486.134L105.396 486.218L103.758 486.663L100.144 487.357L99.5009 487.348L99.1627 487.618L97.7942 489.246L96.7708 489.691L95.9857 490.493L93.761 491.677L88.9215 495.306L88.4708 495.419L87.7222 495.333L87.062 494.926L86.6171 494.923L86.1856 495.304L85.5975 496.095L85.2361 496.946L83.7639 499.305L82.3791 500.342L81.8813 500.959L81.5565 501.936L81.4489 503.369L80.9713 504.808L81.1568 505.845L81.6603 507.561L81.7151 507.689L81.7929 508.036L81.717 508.805L80.6369 508.437L79.7345 508.519L78.7466 508.899L78.319 509.444L77.9298 510.034L77.7703 510.777L77.6348 511.942L77.4752 512.225L76.446 513.074L75.5744 513.451L75.0747 513.469L74.1512 513.092L73.3545 512.934L70.5908 511.306L69.6673 511.15L69.1358 510.579L69.0051 509.958L68.7956 509.614L68.1576 509.286L66.325 507.336L65.9137 506.408L65.2064 506L64.452 505.286L63.4853 505.27L62.5406 505.364L61.8506 505.587L61.0405 506.128L60.0229 506.04L58.5718 506.128L57.6031 506.353L57.261 506.268L56.6594 505.994L55.8224 506.137L55.4784 506.028L54.8278 505.495L54.5722 505.793L54.3089 505.982L53.7986 506.286L53.6871 506.052L53.3008 505.623L53.0231 505.315L53.0038 505.042L53 504.915L53.5314 504.622L53 504.915L53.0038 505.042L53.0231 505.315L53.3008 505.623L53.6871 506.052L53.7986 506.286L54.3089 505.982L54.5722 505.793L54.8278 505.495L55.4784 506.028L55.8224 506.137L56.6594 505.994L57.261 506.268L57.6031 506.353L58.5718 506.128L60.0229 506.04L61.0405 506.128L61.8506 505.587L62.5406 505.364L63.4853 505.27L64.452 505.286L65.2064 506L65.9137 506.408L66.325 507.336L68.1576 509.286L68.7956 509.614L69.0051 509.958L69.1358 510.579L69.6673 511.15L70.5908 511.306L73.3545 512.934L74.1512 513.092L75.0747 513.469L75.5744 513.451L76.446 513.074L77.4752 512.225L77.6348 511.942L77.7703 510.777L77.9298 510.034L78.319 509.444L78.7466 508.899L79.7345 508.519L80.6369 508.437L81.717 508.805L81.9784 508.836L82.3657 508.817L83.2873 509.086L84.1233 509.585L85.8069 510.594L87.3945 510.85L90.634 510.862L92.2397 511.202L92.898 511.087L94.1905 511.278L94.8978 511.656L95.0622 511.523L95.3197 511.145L95.6551 511.665L95.7569 512.818L96.321 513.576L96.7372 513.843L98.0402 514.181L98.3564 514.318L98.9897 514.373L100.339 514.82L101.211 514.969L102.282 515.042L102.583 515.075L103.561 515.06L105.173 514.582L106.231 514.406L107.038 514.179L107.889 513.733L110.317 511.547L111.948 510.512L112.555 510.348L113.321 510.421L113.864 510.612L115.508 511.85L116.953 512.69L117.883 514.105L118.382 514.467L119.459 515.018L120.904 515.498L121.88 516.083L122.486 516.597L123.632 518.142L125.643 518.732L127.337 519.789L130.169 520.631L132.917 521.523L134.266 521.659L135.059 521.474L135.553 521.057L135.971 520.487L136.966 519.293L139.569 516.025L141.553 513.475L142.682 513.85L142.885 513.916L143.242 514.038L145.054 514.717L146.041 514.728L146.916 514.488L147.021 514.12L147.326 514.038L148.035 513.971L148.191 513.926L148.498 513.834L149.019 513.628L149.363 513.427L149.615 513.238L151.168 512.468L154.124 510.156L154.905 509.974L157.228 508.647L161.458 506.615L163.394 506.305L164.639 505.133L165.782 504.743L166.334 504.476L166.641 504.333L167.706 504.178L168.958 504.218L169.361 504.077L169.944 503.476L171.325 503.189L171.781 503.405L172.21 503.372L173.417 502.377L174.469 501.817L174.817 501.489L175.129 501.053L175.475 500.74L175.856 500.597L176.254 500.512L176.117 500.123L176.254 500.512L175.856 500.597L175.475 500.74L175.129 501.053L175.092 501.504L174.995 502.063L174.545 503.077L171.649 506.198L171.604 506.247L171.232 507.129L171.02 509.585L170.61 511.367L170.538 511.821L170.405 513.683L170.025 514.592L170.243 514.926L171.473 516.52L173.249 518.568L174.692 519.706L177.723 521.017L179.146 521.811L183.889 525.201L186.812 527.546L187.756 527.722L189.05 526.925L189.775 526.737H193.897L194.474 526.892L195.687 527.577L196.587 528.087L198.188 529.216L198.684 529.706L198.797 529.871L199.294 530.148L199.397 530.513L200.819 532.782L201.419 533.263L202.106 533.582L204.467 534.136L206.352 535.015L207.564 536.57L208.426 537.212L208.586 537.489L208.618 538.009L209.324 540.582L208.898 541.276V541.621L209.111 542.146L209.424 542.332L209.67 542.067L210.517 542.028L210.922 542.156L211.019 542.189L211.221 542.305L211.255 542.316L211.221 542.305L211.028 542.39L210.664 542.935L210.547 543.181L209.929 543.369L209.254 543.439L209.234 543.807L209.422 544.486L210.984 546.071L211.431 546.947L211.83 547.957L212.408 548.45L212.939 548.989L213.349 550.337L213.209 551.729L213.33 552.567L212.89 554.142L211.847 554.967L211.863 556.582L211.847 557.127L214.008 560.562L215.986 564.072L217.245 566.138L217.786 566.689L218.406 566.655L218.806 566.543L219.091 566.804L220.857 568.356L221.431 569.053L222.507 569.805L223.363 570.866L224.135 571.493L224.226 571.675L224.146 571.876L223.321 573.16L223.284 573.206L222.979 573.665L222.886 574.261L222.941 574.67L223.005 575.128L223.585 575.938L223.673 576.467L223.634 577.31L223.728 577.672L224.807 579.394L225.132 580.513L225.28 580.887L226.081 582.126L226.142 582.254L226.126 582.513L225.974 582.61L224.286 583.179L224.212 583.367L224.378 583.903L224.376 584.091L224.476 584.131L224.691 584.219L225.081 584.237L225.191 584.046L225.403 583.918L225.528 583.93L226.897 583.218L226.979 583.334L227.022 583.413L227.155 583.611L227.624 584.451L228.405 585.251L228.672 585.825L228.666 586.136L229.1 586.327L230.266 588.061L230.889 588.527L233.823 591.795L234.514 592.433L234.926 592.756L235.963 592.96L236.178 592.987L236.351 593.094L239.125 595.445L240.51 596.309L240.903 596.815L241.832 597.35L242.623 598.323L244.64 599.556L245.195 599.756L246.367 600.009L246.927 600.274L247.65 600.754L248.812 601.183L249.176 601.478L249.439 601.862L249.693 602.385L250.031 603.079L250.44 603.648L250.497 604.442L250.792 604.311L251.658 605.707L252.381 606.231L252.616 606.404L253.244 606.599L253.522 606.973L253.575 607.761L254.087 608.793L255.028 609.765L256.362 610.718L256.865 611.172L258.089 612.023L258.737 612.428L260.567 612.577L262.431 612.768L263.413 612.79L264.697 612.985L266.368 613.863L267.508 613.955L268.135 614.268L268.77 614.299L269.192 614.223L269.904 613.572L270.271 613.581L270.596 613.426L271.834 611.564L272.433 611.162L275.105 611.12L275.443 611.007L275.816 610.763L276.062 610.283L276.423 609.86L279.499 608.932L280.73 608.719L281.722 608.224L282.521 607.952L283.319 607.685L286.138 606.55L288.874 605.619L290.094 604.959L291.764 604.578L292.077 604.615L292.942 605.391L293.471 605.269L293.087 605.114L293.044 604.935L293.087 605.114L293.471 605.269L293.798 605.309L294.815 606.617L294.873 607.046L294.835 607.605L295.376 609.349L295.6 609.616L296.159 609.769L296.481 610.021L297.399 611.299L298.025 611.554L298.729 611.436L300.147 610.736L300.666 610.836L300.936 611.031L302.32 612.729L302.721 613.429L302.7 614.563L302.815 615.139L303.184 615.61L307.053 618.902L309.469 620.91L312.042 623.195L313.013 624.135L313.953 625.002L314.91 625.769L315.088 625.811L315.37 625.856L318.122 627.527L319.023 627.831L319.81 627.749L322.971 626.876L323.185 626.946L323.323 627.047L323.386 627.19L324.323 629.627L325.045 629.431L326.861 628.68L329.211 627.293L330.02 627.125L331.381 627.113L333.524 627.229L333.754 627.284L334.762 627.521L335.498 627.694L336.699 627.667L336.966 627.664L337.744 627.645L338.199 627.765L339.838 629.094L340.664 629.954L342.23 630.32L343.334 630.624L343.756 630.627L344.206 630.53L344.841 630.201L346.898 628.708L347.958 628.115L348.635 628.078L349.425 628.209L351.95 629.237L352.767 629.395L354.85 629.112L355.671 629.066L356.104 629.188L356.797 629.478L357.992 630.213L359.118 631.26L360.824 632.294L362.022 632.635L363.494 632.717L364.695 633.204L365.06 633.551L365.439 634.038L366.955 634.129L367.321 634.086L368.324 634.302L369.74 634.004L371.803 633.119L372.818 632.782L373.96 632.836L375.271 632.404L376.226 632.599L376.507 632.513L377.382 631.583L377.486 631.047L378.146 630.523L380.328 629.334L381.208 629.316L382.608 628.945L383.347 629.146L383.731 629.514L384.102 629.912L384.874 630.256L385.846 630.332L387.266 631.941L387.79 633.383L387.614 633.764L387.522 633.864L386.997 634.427L386.927 634.825L386.838 635.023L386.552 635.538L386.606 635.574L386.609 635.577L386.509 635.717L386.611 635.796L386.469 636L386.611 635.796L386.509 635.717L386.609 635.577L386.606 635.574L386.552 635.538L386.838 635.023L386.452 634.978H385.905L386.017 634.619L386.821 633.858L386.921 633.806L387.54 633.487L387.79 633.383L388.145 633.255L388.586 633.125L388.981 633.101L389.157 633.125L389.229 632.884L390.302 631.044L390.979 630.35L390.924 629.115L390.69 629.003L390.754 628.687L391.094 628.23L391.149 627.594L390.243 626.773L390.153 623.317L389.842 622.978L389.596 622.291L389.825 621.528L390.387 620.852L390.446 619.419L390.788 619.273L391.799 618.333L393.51 615.85L394.485 614.764L395.457 613.489L397.317 610.989L398.656 609.671L399.482 609.072L402.011 607.776L402.535 607.484L402.695 606.377L403.867 603.949L404.013 603.215L403.933 602.458L403.804 602.163L403.636 601.78L403.534 601.545L403.029 600.891L402.486 600.751L402.172 600.24L401.973 599.918L401.33 599.373L400.279 598.476L399.91 598.375L399.491 597.922L399.105 596.495L398.199 595.993H397.563L396.6 595.449L396.369 595.19L396.6 595.449L397.563 595.993H398.199L399.105 596.495L399.363 596.507L400.037 596.398L401.24 596.593L403.238 596.44L403.98 596.538L404.869 596.45L405.308 596.474L405.691 596.385L406.152 596.276L406.536 596.264L406.931 596.507L408.112 597.033L409.958 596.33L410.466 596.677L410.798 597.223L411.505 597.87L411.917 598.247L412.169 598.44L413.009 598.561L413.757 598.39L414.361 597.845L414.592 597.861L414.802 598.101L414.882 598.014L414.802 598.101L414.592 597.861L414.361 597.845L414.503 597.609L414.569 597.155L415.577 596.148L416.013 591.265L416.579 590.691L417.415 590.188L417.903 589.689L417.803 589.321L417.485 588.779L417.102 588.737L416.768 588.709L416.075 588.816L415.383 589.027L413.415 589.963L413.362 589.96L412.946 589.933L412.617 589.68L412.721 589.011L413.557 585.661L413.886 584.66L413.981 583.781L413.706 582.378L413.759 581.551L413.678 580.994L413.563 580.544L413.067 579.93L412.683 579.22L410.872 574.879L410.657 574.566L410.019 574.371L404.597 574.764L403.536 574.687L403.012 574.298L401.896 571.943L401.101 570.839L401.216 569.056L401.385 568.104L401.956 567.146L402.531 566.704L403.142 566.081L403.583 565.649L404.019 565.143L404.166 564.918L404.689 563.948L405.156 563.68L405.73 563.354L406.187 563.221L406.058 563.741L406.222 563.988L406.535 564.456L407.007 564.2L407.573 564.064L407.876 564.1L408.279 563.933" stroke="#FF1414" stroke-width="2"/>
</g>
<path fill-rule="evenodd" clip-rule="evenodd" d="M364.971 255L477.028 255V273.58L364.971 273.58L364.971 255ZM364.971 292.162L477.028 292.162V310.742L364.971 310.742L364.971 292.162ZM351 404.868L402.178 375.773L351 346.678L360.266 330.546L421 365.073L481.734 330.546L491 346.678L439.822 375.773L491 404.868L481.734 421L421 386.473L360.266 421L351 404.868Z" fill="#DDFF7D"/>
<path d="M552.368 314V206.72H623.936V224H571.952V253.664H617.456V270.944H571.952V314H552.368ZM661.689 315.728C655.641 315.728 650.361 314.384 645.849 311.696C641.433 309.008 638.025 305.264 635.625 300.464C633.321 295.664 632.169 290.048 632.169 283.616V235.664H651.033V282.032C651.033 285.296 651.657 288.176 652.905 290.672C654.249 293.072 656.121 294.992 658.521 296.432C661.017 297.776 663.801 298.448 666.873 298.448C669.945 298.448 672.681 297.776 675.081 296.432C677.481 294.992 679.353 293.024 680.697 290.528C682.041 288.032 682.713 285.056 682.713 281.6V235.664H701.577V314H683.721V298.592L685.305 301.328C683.481 306.128 680.457 309.728 676.233 312.128C672.105 314.528 667.257 315.728 661.689 315.728ZM719.112 314V235.664H736.824V251.072L735.384 248.336C737.208 243.632 740.184 240.08 744.312 237.68C748.536 235.184 753.432 233.936 759 233.936C764.76 233.936 769.848 235.184 774.264 237.68C778.776 240.176 782.28 243.68 784.776 248.192C787.272 252.608 788.52 257.744 788.52 263.6V314H769.656V268.064C769.656 264.608 768.984 261.632 767.64 259.136C766.296 256.64 764.424 254.72 762.024 253.376C759.72 251.936 756.984 251.216 753.816 251.216C750.744 251.216 748.008 251.936 745.608 253.376C743.208 254.72 741.336 256.64 739.992 259.136C738.648 261.632 737.976 264.608 737.976 268.064V314H719.112ZM831.649 314V206.72H871.537C878.833 206.72 885.265 208.064 890.833 210.752C896.497 213.344 900.913 217.184 904.081 222.272C907.249 227.264 908.833 233.36 908.833 240.56C908.833 247.952 907.057 254.24 903.505 259.424C900.049 264.608 895.345 268.448 889.393 270.944L914.017 314H891.841L865.489 266.912L878.161 274.4H851.233V314H831.649ZM851.233 257.12H871.825C875.377 257.12 878.449 256.448 881.041 255.104C883.633 253.664 885.649 251.696 887.089 249.2C888.529 246.704 889.249 243.824 889.249 240.56C889.249 237.2 888.529 234.32 887.089 231.92C885.649 229.424 883.633 227.504 881.041 226.16C878.449 224.72 875.377 224 871.825 224H851.233V257.12ZM953.204 315.728C947.156 315.728 941.876 314.384 937.364 311.696C932.948 309.008 929.54 305.264 927.14 300.464C924.836 295.664 923.684 290.048 923.684 283.616V235.664H942.548V282.032C942.548 285.296 943.172 288.176 944.42 290.672C945.764 293.072 947.636 294.992 950.036 296.432C952.532 297.776 955.316 298.448 958.388 298.448C961.46 298.448 964.196 297.776 966.596 296.432C968.996 294.992 970.868 293.024 972.212 290.528C973.556 288.032 974.228 285.056 974.228 281.6V235.664H993.092V314H975.236V298.592L976.82 301.328C974.996 306.128 971.972 309.728 967.748 312.128C963.62 314.528 958.772 315.728 953.204 315.728ZM1010.63 314V235.664H1028.34V251.072L1026.9 248.336C1028.72 243.632 1031.7 240.08 1035.83 237.68C1040.05 235.184 1044.95 233.936 1050.52 233.936C1056.28 233.936 1061.36 235.184 1065.78 237.68C1070.29 240.176 1073.8 243.68 1076.29 248.192C1078.79 252.608 1080.04 257.744 1080.04 263.6V314H1061.17V268.064C1061.17 264.608 1060.5 261.632 1059.16 259.136C1057.81 256.64 1055.94 254.72 1053.54 253.376C1051.24 251.936 1048.5 251.216 1045.33 251.216C1042.26 251.216 1039.52 251.936 1037.12 253.376C1034.72 254.72 1032.85 256.64 1031.51 259.136C1030.16 261.632 1029.49 264.608 1029.49 268.064V314H1010.63Z" fill="#221C13"/>
<path d="M557.928 415V355.6H545.608V349.44H564.968V415H557.928ZM579.76 415V410.6L598.064 390.448C601.643 386.517 604.547 383.261 606.776 380.68C609.064 378.099 610.766 375.752 611.88 373.64C612.995 371.528 613.552 369.24 613.552 366.776C613.552 362.845 612.408 359.824 610.12 357.712C607.832 355.6 604.782 354.544 600.968 354.544C597.038 354.544 593.723 355.659 591.024 357.888C588.384 360.117 586.595 363.227 585.656 367.216L579.232 365.808C579.995 362.229 581.374 359.149 583.368 356.568C585.363 353.987 587.856 351.992 590.848 350.584C593.84 349.117 597.184 348.384 600.88 348.384C604.811 348.384 608.243 349.176 611.176 350.76C614.11 352.344 616.398 354.515 618.04 357.272C619.742 360.029 620.592 363.197 620.592 366.776C620.592 369.24 620.064 371.616 619.008 373.904C618.011 376.192 616.486 378.656 614.432 381.296C612.379 383.936 609.739 387.016 606.512 390.536L589.88 408.84H622.352V415H579.76ZM680.039 416.056C675.404 416.056 671.151 415.235 667.279 413.592C663.407 411.891 660.034 409.544 657.159 406.552C654.343 403.501 652.143 399.923 650.559 395.816C648.975 391.709 648.183 387.192 648.183 382.264C648.183 377.336 648.975 372.819 650.559 368.712C652.143 364.605 654.343 361.027 657.159 357.976C660.034 354.925 663.407 352.579 667.279 350.936C671.151 349.235 675.404 348.384 680.039 348.384C684.498 348.384 688.487 349.176 692.007 350.76C695.586 352.344 698.578 354.397 700.983 356.92C703.447 359.384 705.207 361.995 706.263 364.752L699.927 367.832C698.284 363.843 695.762 360.704 692.359 358.416C688.956 356.128 684.85 354.984 680.039 354.984C675.228 354.984 670.946 356.128 667.191 358.416C663.436 360.704 660.503 363.901 658.391 368.008C656.279 372.056 655.223 376.808 655.223 382.264C655.223 387.661 656.279 392.413 658.391 396.52C660.503 400.627 663.436 403.824 667.191 406.112C670.946 408.341 675.228 409.456 680.039 409.456C684.322 409.456 688.164 408.517 691.567 406.64C695.028 404.763 697.756 402.211 699.751 398.984C701.746 395.699 702.743 391.944 702.743 387.72V384.112L705.911 387.28H680.039V381.12H709.783V386.576C709.783 390.859 709.02 394.819 707.495 398.456C705.97 402.035 703.858 405.144 701.159 407.784C698.46 410.424 695.292 412.477 691.655 413.944C688.076 415.352 684.204 416.056 680.039 416.056ZM721.424 415V367.832H728.024V415H721.424ZM721.424 359.12V349.44H728.024V359.12H721.424ZM741.534 432.6V367.832H748.134V378.392L747.078 376.544C748.955 373.552 751.448 371.176 754.558 369.416C757.726 367.656 761.334 366.776 765.382 366.776C769.84 366.776 773.8 367.861 777.262 370.032C780.782 372.144 783.539 375.048 785.534 378.744C787.587 382.44 788.614 386.664 788.614 391.416C788.614 396.109 787.587 400.333 785.534 404.088C783.539 407.784 780.782 410.717 777.262 412.888C773.8 415 769.84 416.056 765.382 416.056C761.334 416.056 757.667 415.147 754.382 413.328C751.155 411.451 748.72 408.811 747.078 405.408L748.134 404.44V432.6H741.534ZM765.03 409.456C768.198 409.456 771.014 408.664 773.478 407.08C776 405.496 777.966 403.355 779.374 400.656C780.84 397.899 781.574 394.819 781.574 391.416C781.574 387.955 780.84 384.875 779.374 382.176C777.966 379.477 776 377.336 773.478 375.752C771.014 374.168 768.198 373.376 765.03 373.376C761.862 373.376 758.987 374.168 756.406 375.752C753.883 377.336 751.859 379.507 750.334 382.264C748.867 384.963 748.134 388.013 748.134 391.416C748.134 394.819 748.867 397.899 750.334 400.656C751.859 403.355 753.883 405.496 756.406 407.08C758.987 408.664 761.862 409.456 765.03 409.456ZM803.35 415V374.432H793.934V367.832H803.35V363.608C803.35 360.323 804.084 357.565 805.55 355.336C807.017 353.048 808.953 351.317 811.358 350.144C813.764 348.971 816.345 348.384 819.102 348.384C819.689 348.384 820.364 348.443 821.126 348.56C821.889 348.619 822.505 348.707 822.974 348.824V354.808C822.564 354.691 822.006 354.632 821.302 354.632C820.598 354.573 820.1 354.544 819.806 354.544C816.99 354.544 814.644 355.219 812.766 356.568C810.889 357.917 809.95 360.264 809.95 363.608V367.832H821.478V374.432H809.95V415H803.35ZM851.865 416.056C847.465 416.056 843.476 415 839.897 412.888C836.377 410.717 833.591 407.755 831.537 404C829.484 400.245 828.457 395.992 828.457 391.24C828.457 386.488 829.455 382.293 831.449 378.656C833.444 374.96 836.143 372.056 839.545 369.944C843.007 367.832 846.879 366.776 851.161 366.776C854.564 366.776 857.585 367.421 860.225 368.712C862.924 369.944 865.212 371.645 867.089 373.816C868.967 375.928 870.404 378.333 871.401 381.032C872.399 383.672 872.897 386.4 872.897 389.216C872.897 389.803 872.868 390.477 872.809 391.24C872.751 391.944 872.663 392.677 872.545 393.44H832.681V387.28H868.761L865.593 389.92C866.121 386.693 865.74 383.819 864.449 381.296C863.217 378.715 861.428 376.691 859.081 375.224C856.735 373.699 854.095 372.936 851.161 372.936C848.228 372.936 845.5 373.699 842.977 375.224C840.513 376.749 838.577 378.891 837.169 381.648C835.761 384.347 835.204 387.573 835.497 391.328C835.204 395.083 835.791 398.368 837.257 401.184C838.783 403.941 840.836 406.083 843.417 407.608C846.057 409.133 848.873 409.896 851.865 409.896C855.327 409.896 858.231 409.075 860.577 407.432C862.924 405.789 864.831 403.736 866.297 401.272L871.929 404.264C870.991 406.376 869.553 408.341 867.617 410.16C865.681 411.92 863.364 413.357 860.665 414.472C858.025 415.528 855.092 416.056 851.865 416.056ZM884.534 415V348.384H891.134V415H884.534ZM931.916 415V356.04H913.788V349.44H956.908V356.04H938.956V415H931.916ZM980.528 416.056C976.069 416.056 972.021 415 968.384 412.888C964.747 410.717 961.843 407.784 959.672 404.088C957.56 400.333 956.504 396.08 956.504 391.328C956.504 386.635 957.56 382.44 959.672 378.744C961.784 375.048 964.629 372.144 968.208 370.032C971.845 367.861 975.952 366.776 980.528 366.776C985.104 366.776 989.181 367.832 992.76 369.944C996.397 372.056 999.243 374.96 1001.3 378.656C1003.41 382.352 1004.46 386.576 1004.46 391.328C1004.46 396.139 1003.38 400.421 1001.21 404.176C999.037 407.872 996.133 410.776 992.496 412.888C988.917 415 984.928 416.056 980.528 416.056ZM980.528 409.456C983.696 409.456 986.541 408.664 989.064 407.08C991.645 405.496 993.669 403.325 995.136 400.568C996.661 397.811 997.424 394.731 997.424 391.328C997.424 387.925 996.661 384.875 995.136 382.176C993.669 379.477 991.645 377.336 989.064 375.752C986.541 374.168 983.696 373.376 980.528 373.376C977.36 373.376 974.485 374.168 971.904 375.752C969.381 377.336 967.357 379.477 965.832 382.176C964.307 384.875 963.544 387.925 963.544 391.328C963.544 394.731 964.307 397.811 965.832 400.568C967.357 403.325 969.381 405.496 971.904 407.08C974.485 408.664 977.36 409.456 980.528 409.456ZM1032.82 416.056C1029.54 416.056 1026.55 415.293 1023.85 413.768C1021.15 412.184 1019.01 410.013 1017.42 407.256C1015.9 404.44 1015.14 401.213 1015.14 397.576V367.832H1021.74V396.784C1021.74 399.307 1022.23 401.536 1023.23 403.472C1024.29 405.349 1025.73 406.816 1027.54 407.872C1029.42 408.928 1031.56 409.456 1033.97 409.456C1036.37 409.456 1038.51 408.928 1040.39 407.872C1042.27 406.757 1043.74 405.203 1044.79 403.208C1045.85 401.155 1046.38 398.72 1046.38 395.904V367.832H1052.98V415H1046.38V405.848L1047.87 406.2C1046.76 409.251 1044.85 411.656 1042.15 413.416C1039.45 415.176 1036.34 416.056 1032.82 416.056ZM1066.55 415V367.832H1073.15V375.576L1072.27 374.432C1073.38 372.203 1075.06 370.443 1077.29 369.152C1079.57 367.861 1082.33 367.216 1085.56 367.216H1088.55V373.816H1084.41C1081.01 373.816 1078.28 374.872 1076.23 376.984C1074.18 379.096 1073.15 382.088 1073.15 385.96V415H1066.55Z" fill="#221C13"/>
</svg>
